<svg xmlns="http://www.w3.org/2000/svg" width="180" height="180"><g transform="translate(-103.44 -21.595)scale(.2015)"><circle cx="960" cy="553.82" r="446.65" style="fill:#ff4b87"/><path d="M1000.14 195.15c16.06-5.18 37.33 17.62 46.56 29.01 33.71 41.56 68.67 148.12 128.34 155.28 23.47 2.82 111.04-7.63 121.75 13.34 17.59 34.44-49.27 38.59-71.45 54.74-64.16 46.7 28.04 149.56 13.08 197.58-1.83 5.87-6.62 11.8-11.5 15.61-39.62 19.21-76.78-76.59-95.4-102.75-36.22-50.9-71.43-67.94-136.03-61.12-14.32 1.51-72.83 24.18-78.94 5.75-10.12-30.52 81.6-56.82 101.05-73.67 40.48-35.04 20.71-101.86 4.35-144.02-5.79-14.92-48.61-81.11-21.83-89.74z" style="fill:#fff"/></g></svg>