<svg xmlns="http://www.w3.org/2000/svg" width="854.733" height="576.833" data-name="Layer 1"><g style="fill:#000"><path d="M1002.893 380.801c21.347-1.5 54.088 11.018 62.301 32.434 14.451 37.683-15.726 55.795-25.753 87.403-10.554 33.271-7.527 52.432-38.595 77.081-26.489 21.016-81.581 19.01-92.484 50.973-15.801 46.324 62.676 57.321 92.276 39.804 22.788-13.486 49.972-61.92 82.726-42.104 36.758 22.239 20.826 106.996-22.703 117.519-28.403 6.867-62.981-17.247-96.872-15.097-36.521 2.317-62.394 36.036-98.631 7.744-49.461-38.618-23.948-111.904 14.6-148.797 25.533-24.436 63.942-33.727 88.747-59.334 11.197-11.559 33.417-44.301 35.867-59.761 4.462-28.158-15.3-38.072-38.695-24.799-24.661 13.992-45.485 39.998-78.592 34.817-46.077-7.212-45.98-71.069-10.884-88.786 30.197-15.243 55.076 21.843 75.662 13.933 18.609-7.15 25.026-21.203 51.031-23.03zm-231.48-3.119c27.646-4.004 39.274 7.602 35.454 35.438-3.985 29.042-48.08 84.69-63.659 113.713-9.428 17.562-20.701 42.103-26.99 60.923-19.582 58.606 1.322 127.031-37.288 181.709-23.594 33.413-73.485 50.066-111.345 33.221-70.103-31.189-12.869-122.31 1.656-172.165 10.45-35.87 14.957-73.514 24.623-109.552 4.906-18.292 12.673-37.045 28.406-48.712 12.525-9.287 32.856-13.396 43.06 1.408 14.509 21.05-16.374 58.279-26.49 76.84-16.096 29.535-44.958 101.945-41.392 134.436 2.519 22.96 22.085 28.16 35.231 8.99 18.282-26.659 19.228-62.444 25.694-93.06 12.155-57.554 36.477-120.89 62.227-173.743 10.415-21.378 24.822-45.681 50.814-49.446zm405.822-4.582c61.799-3.338 112.158 88.454 131.04 137.964 22.224 58.272 25.473 118.826 48.603 178.109 10.838 27.779 40.285 71.351 28.611 100.309-4.513 11.195-18.093 18.571-29.785 18.144-62.169-2.27-37.835-94.427-50.52-128.465-5.141-13.793-24.491-23.978-38.701-17.889-35.14 15.059-13.632 59.838-16.433 85.355-4.506 41.046-60.618 37.197-55.38-9.098 1.19-10.518 7.612-23.787 10.177-34.544 12.342-51.754 10.702-128.326-14.172-176.151-14.708-28.279-40.346-46.081-53.519-76.041-15.637-35.563-2.424-75.397 40.078-77.693zm95.514 208.825c3.903-3.232 8.248-16.682 8.263-21.909.085-29.319-38.742-82.947-61.962-100.098-16.841-12.439-24.241-.448-18.051 16.501 3.844 10.524 21.408 31.731 28.247 44.245 4.667 8.54 9.999 18.918 13.833 27.81 4.445 10.308 6.275 31.909 19.216 34.819 3.59.807 7.428 1.137 10.454-1.369z" style="fill:#000" transform="translate(-533.446 -232.5)"/><path d="M820.73 467.073c31.967-6.62 47.737 27.688 47.378 54.392-.305 22.727-8.519 40.883-23.023 57.855-22.228 26.009-28.291 23.115-27.005 62.418 1.379 42.106 11.582 101.041-31.952 126.932-19.903 11.837-37.304 8.214-51.337-9.752-33.826-43.306 20.559-97.261 33.128-139.531 11.362-38.212 3.203-79.165 16.554-114.533 4.437-11.755 23.68-35.177 36.256-37.782z" style="fill:#000" transform="translate(-533.446 -232.5)"/><path d="M1089.171 453.196c37.769-7.876 53.772 41.372 57.305 70.014 4.634 37.559-.282 52.172 17.907 88.507 22.165 44.277 41.549 67.059 18.517 120.223-11.193 25.836-39.784 38.26-60.001 13.771-23.328-28.258-5.572-66.749-2.615-96.407 3.636-36.468-43.574-63.336-54.939-98.972-8.064-25.283-10.915-89.891 23.825-97.136z" data-name="I" style="fill:#000" transform="translate(-533.446 -232.5)"/><path d="M821.346 448.014c-9.662-5.986 17.414-68.63 9.469-85.791-7.453-16.098-51.334-5.339-56.044-12.225-5.172-7.56 10.062-10.452 15.531-12.035 17.313-5.012 33.801-5.71 50.433-14.357 28.701-14.922 43.179-59.072 64.629-83.442 2.135-2.425 7.031-8.258 10.448-7.614 1.634.712 3.389 2.263 3.848 3.974 1.662 6.193-18.014 41.787-21.399 52.057-6.376 19.346-7.34 36.485 7.748 52.454 5.882 6.226 26.054 15.55 28.524 20.849 6.848 14.695-21.059 5.552-26.459 4.845-6.912-.904-14.436-2.483-21.366-1.782-33.38 3.373-43.107 55.648-55.578 80.137-2.054 3.439-6.098 3.788-9.783 2.93zm181.288-204.775c5.504-1.773 12.79 6.038 15.954 9.939 11.551 14.24 23.528 50.747 43.971 53.201 8.042.965 38.045-2.613 41.715 4.571 6.028 11.8-16.881 13.223-24.48 18.754-21.981 15.999 9.607 51.243 4.483 67.693-.627 2.011-2.267 4.042-3.939 5.349-13.576 6.581-26.307-26.24-32.685-35.203-12.41-17.44-24.474-23.277-46.607-20.942-4.906.518-24.954 8.284-27.047 1.97-3.466-10.455 27.956-19.469 34.623-25.24 13.869-12.005 7.096-34.901 1.491-49.344-1.984-5.112-16.655-27.791-7.478-30.748z" style="fill:#000" transform="translate(-533.446 -232.5)"/></g></svg>